<?xml version="1.0" standalone="no"?><!DOCTYPE svg PUBLIC "-//W3C//DTD SVG 1.1//EN" "http://www.w3.org/Graphics/SVG/1.1/DTD/svg11.dtd"><svg t="1731664149172" class="icon" viewBox="0 0 1024 1024" version="1.1" xmlns="http://www.w3.org/2000/svg" p-id="5230" xmlns:xlink="http://www.w3.org/1999/xlink" width="32" height="32"><path d="M512 0C230.4 0 0 230.4 0 512s230.4 512 512 512 512-230.4 512-512S793.6 0 512 0z m0 960C264.533333 960 64 759.466667 64 512S264.533333 64 512 64s448 200.533333 448 448-200.533333 448-448 448z" fill="#1296db" p-id="5231"></path><path d="M768 285.866667c-23.466667 12.8-46.933333 23.466667-72.533333 27.733333-19.2-21.333333-49.066667-38.4-81.066667-38.4-61.866667 0-113.066667 53.333333-113.066667 119.466667 0 6.4 0 17.066667 2.133334 25.6-93.866667-4.266667-177.066667-53.333333-232.533334-128-8.533333 19.2-14.933333 38.4-14.933333 61.866666 0 40.533333 21.333333 76.8 51.2 100.266667-19.2-2.133333-36.266667-8.533333-51.2-17.066667v2.133334c0 57.6 38.4 106.666667 89.6 119.466666-8.533333 2.133333-19.2 4.266667-29.866667 4.266667-6.4 0-14.933333 0-21.333333-2.133333 14.933333 46.933333 57.6 81.066667 106.666667 83.2-38.4 32-87.466667 51.2-140.8 51.2-6.4 0-17.066667 0-25.6-2.133334 51.2 36.266667 110.933333 53.333333 170.666666 55.466667 206.933333 0 322.133333-179.2 322.133334-337.066667v-17.066666c23.466667-17.066667 42.666667-36.266667 57.6-61.866667-21.333333 10.666667-42.666667 17.066667-66.133334 19.2 23.466667-14.933333 40.533333-40.533333 49.066667-66.133333z" fill="#1296db" p-id="5232"></path></svg>